<svg width="30" height="30" viewBox="0 0 30 30" fill="none" xmlns="http://www.w3.org/2000/svg">
<g opacity="0.4">
<path fill-rule="evenodd" clip-rule="evenodd" d="M25.3661 13.9714C25.8652 14.0402 26.25 14.4744 26.25 14.9999C26.25 15.5731 25.7921 16.0378 25.2273 16.0378H7.25006L13.7441 22.6017L13.8434 22.7179C14.1413 23.1236 14.1095 23.7002 13.7471 24.0695C13.3485 24.4756 12.701 24.477 12.3008 24.0725L4.06481 15.7489C4.02012 15.7054 3.97932 15.6578 3.94298 15.6068C3.65331 15.2005 3.68926 14.6292 4.05082 14.2638L12.3008 5.92741L12.4157 5.82717C12.8168 5.52657 13.3849 5.56131 13.7472 5.93058C14.1457 6.33677 14.1443 6.99393 13.7441 7.39838L7.24845 13.962L25.2273 13.962L25.3661 13.9714Z" fill="#25033E"/>
</g>
</svg>
