<svg width="308" height="689" viewBox="0 0 308 689" fill="none" xmlns="http://www.w3.org/2000/svg">
<path opacity="0.04" d="M0 523.602V312.2C0 266.038 19.2955 221.976 53.2226 190.666L212.291 43.8629C275.662 -14.621 373.338 -14.6209 436.709 43.8629L595.777 190.666C629.704 221.976 649 266.038 649 312.2V523.602C649 614.949 574.934 689 483.569 689H429.562C432.87 687.026 436.092 684.935 439.228 682.728C454.017 672.318 466.059 659.106 475.354 643.091C485.072 626.676 489.931 607.258 489.931 584.837C489.931 566.82 486.974 551.006 481.058 537.393C475.566 523.38 467.326 510.969 456.341 500.158C445.777 489.348 432.89 480.14 417.679 472.533C402.891 464.525 386.413 457.519 368.244 451.513L339.723 442.505C313.949 434.097 295.147 425.489 283.316 416.681C271.485 407.473 265.57 396.462 265.57 383.651C265.57 370.438 271.697 359.829 283.95 351.821C296.203 343.413 311.625 339.209 330.217 339.209C349.653 339.209 364.864 344.014 375.849 353.623C387.258 363.232 395.074 374.042 399.3 386.053L474.72 356.025C471.34 346.416 466.059 336.207 458.876 325.397C451.693 314.587 442.186 304.778 430.355 295.969C418.947 286.761 404.792 279.354 387.891 273.749C371.413 267.743 351.765 264.74 328.949 264.74C306.978 264.74 286.908 267.943 268.739 274.349C250.993 280.355 235.571 288.963 222.472 300.173C209.797 310.983 199.867 323.795 192.684 338.609C185.924 353.022 182.544 368.637 182.544 385.452C182.544 401.867 185.713 416.681 192.051 429.893C198.811 442.705 207.262 453.916 217.402 463.525C227.543 473.133 238.74 481.341 250.993 488.147C263.669 494.954 276.133 500.359 288.387 504.362L316.273 513.971C332.752 519.576 346.484 524.981 357.47 530.186C368.878 535.391 377.962 540.796 384.722 546.401C391.905 552.007 396.976 558.012 399.933 564.418C402.891 570.824 404.37 578.031 404.37 586.038C404.37 594.446 402.469 601.853 398.666 608.259C394.863 614.664 389.582 620.07 382.821 624.474C376.483 628.477 369.089 631.68 360.638 634.083C352.61 636.084 344.16 637.085 335.287 637.085C311.203 637.085 291.767 630.079 276.978 616.066C262.19 601.652 251.838 583.636 245.923 562.016L165.431 592.044C171.769 612.062 180.431 629.678 191.417 644.893C202.402 659.706 215.29 672.318 230.078 682.728C233.215 684.935 236.418 687.026 239.687 689H165.431C74.0661 689 0 614.949 0 523.602Z" fill="#9B51E0"/>
</svg>
