<svg width="52" height="30" viewBox="0 0 52 30" fill="none" xmlns="http://www.w3.org/2000/svg">
<path fill-rule="evenodd" clip-rule="evenodd" d="M50.25 14.25C50.8023 14.25 51.25 14.6977 51.25 15.25C51.25 15.8023 50.8023 16.25 50.25 16.25L7.45999 16.25L13.7441 22.6017L13.8433 22.7179C14.1412 23.1236 14.1094 23.7002 13.7471 24.0695C13.3485 24.4756 12.7009 24.477 12.3007 24.0725L4.0507 15.7347L3.95117 15.6182C3.6526 15.2112 3.6858 14.6326 4.05076 14.2638L12.3008 5.92741L12.4157 5.82717C12.8167 5.52657 13.3848 5.56131 13.7471 5.93058C14.1456 6.33677 14.1443 6.99393 13.744 7.39838L6.96333 14.25L50.25 14.25Z" fill="#25033E"/>
</svg>
