<svg width="30" height="30" viewBox="0 0 30 30" fill="none" xmlns="http://www.w3.org/2000/svg">
<g opacity="0.4">
<path fill-rule="evenodd" clip-rule="evenodd" d="M4.63395 13.9714C4.13476 14.0402 3.75 14.4744 3.75 14.9999C3.75 15.5731 4.20789 16.0378 4.77273 16.0378H22.7499L16.2559 22.6017L16.1566 22.7179C15.8587 23.1236 15.8905 23.7002 16.2529 24.0695C16.6515 24.4756 17.299 24.477 17.6992 24.0725L25.9352 15.7489C25.9799 15.7054 26.0207 15.6578 26.057 15.6068C26.3467 15.2005 26.3107 14.6292 25.9492 14.2638L17.6992 5.92741L17.5843 5.82717C17.1832 5.52657 16.6151 5.56131 16.2528 5.93058C15.8543 6.33677 15.8557 6.99393 16.2559 7.39838L22.7515 13.962L4.77273 13.962L4.63395 13.9714Z" fill="#25033E"/>
</g>
</svg>
