<svg width="52" height="30" viewBox="0 0 52 30" fill="none" xmlns="http://www.w3.org/2000/svg">
<path fill-rule="evenodd" clip-rule="evenodd" d="M1.74994 14.25C1.19765 14.25 0.749939 14.6977 0.749939 15.25C0.749939 15.8023 1.19765 16.25 1.74994 16.25L44.54 16.25L38.2559 22.6017L38.1566 22.7179C37.8587 23.1236 37.8905 23.7002 38.2529 24.0695C38.6515 24.4756 39.299 24.477 39.6992 24.0725L47.9492 15.7347L48.0488 15.6182C48.3473 15.2112 48.3141 14.6326 47.9492 14.2638L39.6992 5.92741L39.5843 5.82717C39.1832 5.52657 38.6151 5.56131 38.2528 5.93058C37.8543 6.33677 37.8557 6.99393 38.2559 7.39838L45.0366 14.25L1.74994 14.25Z" fill="#25033E"/>
</svg>
