<svg width="51" height="56" viewBox="0 0 51 56" fill="none" xmlns="http://www.w3.org/2000/svg">
<path d="M0 42.0416V25.4257C0 21.7974 1.51629 18.3342 4.18236 15.8732L16.6824 4.33476C21.6622 -0.26198 29.3378 -0.261977 34.3176 4.33476L46.8176 15.8732C49.4837 18.3342 51 21.7974 51 25.4257V42.0415C51 49.2213 45.1797 55.0416 38 55.0416H33.756C34.0159 54.8864 34.2691 54.7221 34.5156 54.5485C35.6777 53.7304 36.624 52.6919 37.3545 51.4332C38.1182 50.143 38.5 48.6167 38.5 46.8545C38.5 45.4384 38.2676 44.1954 37.8027 43.1255C37.3711 42.0241 36.7236 41.0485 35.8604 40.1989C35.0303 39.3492 34.0176 38.6255 32.8223 38.0276C31.6602 37.3982 30.3652 36.8475 28.9375 36.3755L26.6963 35.6674C24.6709 35.0066 23.1934 34.33 22.2637 33.6377C21.334 32.9139 20.8691 32.0485 20.8691 31.0416C20.8691 30.0031 21.3506 29.1692 22.3135 28.5398C23.2764 27.879 24.4883 27.5485 25.9492 27.5485C27.4766 27.5485 28.6719 27.9262 29.5352 28.6814C30.4316 29.4367 31.0459 30.2863 31.3779 31.2304L37.3047 28.8702C37.0391 28.115 36.624 27.3125 36.0596 26.4629C35.4951 25.6132 34.7481 24.8423 33.8184 24.1499C32.9219 23.4262 31.8096 22.844 30.4814 22.4034C29.1865 21.9314 27.6426 21.6954 25.8496 21.6954C24.1231 21.6954 22.5459 21.9471 21.1182 22.4506C19.7236 22.9227 18.5117 23.5992 17.4824 24.4804C16.4863 25.33 15.7061 26.337 15.1416 27.5013C14.6104 28.6342 14.3447 29.8615 14.3447 31.1832C14.3447 32.4734 14.5938 33.6377 15.0918 34.6762C15.6231 35.6832 16.2871 36.5643 17.084 37.3195C17.8809 38.0748 18.7607 38.7199 19.7236 39.2548C20.7197 39.7898 21.6992 40.2146 22.6621 40.5293L24.8535 41.2846C26.1484 41.7251 27.2275 42.1499 28.0908 42.559C28.9873 42.9681 29.7012 43.393 30.2324 43.8335C30.7969 44.2741 31.1953 44.7461 31.4277 45.2496C31.6602 45.7531 31.7764 46.3195 31.7764 46.9489C31.7764 47.6097 31.627 48.1919 31.3281 48.6954C31.0293 49.1989 30.6143 49.6237 30.083 49.9699C29.585 50.2846 29.0039 50.5363 28.3398 50.7251C27.709 50.8825 27.0449 50.9611 26.3477 50.9611C24.4551 50.9611 22.9277 50.4104 21.7656 49.309C20.6035 48.1762 19.79 46.7601 19.3252 45.0608L13 47.4209C13.4981 48.9944 14.1787 50.379 15.042 51.5748C15.9053 52.7391 16.918 53.7304 18.0801 54.5485C18.3266 54.7221 18.5783 54.8864 18.8352 55.0416H13C5.8203 55.0416 0 49.2213 0 42.0416Z" fill="#7800D2"/>
</svg>
